<svg id="visual" viewBox="0 0 1920 100" width="1920" height="100" xmlns="http://www.w3.org/2000/svg" xmlns:xlink="http://www.w3.org/1999/xlink" version="1.1"><path d="M0 33L53.3 33.5C106.7 34 213.3 35 320 40.8C426.7 46.7 533.3 57.3 640 55C746.7 52.7 853.3 37.3 960 29C1066.7 20.7 1173.3 19.3 1280 19.7C1386.7 20 1493.3 22 1600 24.7C1706.7 27.3 1813.3 30.7 1866.7 32.3L1920 34L1920 0L1866.7 0C1813.3 0 1706.7 0 1600 0C1493.3 0 1386.7 0 1280 0C1173.3 0 1066.7 0 960 0C853.3 0 746.7 0 640 0C533.3 0 426.7 0 320 0C213.3 0 106.7 0 53.3 0L0 0Z" fill="#0099FF" stroke-linecap="round" stroke-linejoin="miter"></path></svg>