<svg id="visual" viewBox="0 0 1920 100" width="1920" height="100" xmlns="http://www.w3.org/2000/svg" xmlns:xlink="http://www.w3.org/1999/xlink" version="1.1"><path d="M0 65L53.3 64.5C106.7 64 213.3 63 320 57.2C426.7 51.3 533.3 40.7 640 43C746.7 45.3 853.3 60.7 960 69C1066.7 77.3 1173.3 78.7 1280 78.3C1386.7 78 1493.3 76 1600 73.3C1706.7 70.7 1813.3 67.3 1866.7 65.7L1920 64L1920 101L1866.7 101C1813.3 101 1706.7 101 1600 101C1493.3 101 1386.7 101 1280 101C1173.3 101 1066.7 101 960 101C853.3 101 746.7 101 640 101C533.3 101 426.7 101 320 101C213.3 101 106.7 101 53.3 101L0 101Z" fill="#0099FF" stroke-linecap="round" stroke-linejoin="miter"></path></svg>